<?xml version="1.0" encoding="UTF-8"?><svg xmlns="http://www.w3.org/2000/svg" xmlns:xlink="http://www.w3.org/1999/xlink" data-name="Layer 1" height="448.8" preserveAspectRatio="xMidYMid meet" version="1.0" viewBox="255.6 51.2 244.4 448.8" width="244.4" zoomAndPan="magnify"><g data-name="Layer 5"><g id="change1_1"><path d="M500,253.7s-45.3,13.47-74-6.53c0,0,42-25.41,49.15-28.25s2.17-11.09-4.37-7-40.65,27-57.61,25.66S386.23,212,386.23,212s48.9-18.48,53.91-25.41.21-8.28-3.27-8.06-35,26.29-52,24.55c0,0-9.13.25-14.78-11.73s-10.87-21.5-9.56-25.41,5.65-5.22,12.83-6.11,33.69-10.62,34.57-15.42-7.17-3.91-10.66-2.38-31.94,17.16-39.12,13a14.66,14.66,0,0,1-3.7-10.23c.22-6.29,26.94-10,26.94-10s2.51-.89,1.44-2.63-4.58-.64-6.42-.09-19.58,3.91-21.74,1.07-2.84-32.8,32.16-47.16c0,0,9.56,1.74,13.93,13S409,113.18,413,112.29s-3.48-8.46-5.44-11.3-11.72-17.38-11.72-20.22S409,69.93,434.48,67.51c0,0,10.88,3.06,21.29,32.84,0,0,2.93,3.26,5.23,1S450.67,74.9,442,66.44c0,0,8.27-9.56,25.44-8.06,0,0,9.22,4.58,13.59,25.11s6.72,12.83,6.72,12.83a23,23,0,0,0-1.53-10.42c-2.17-5.89-8-24.34-7.14-26.76S500,51.2,500,51.2Z" fill="#4d9b44" fill-rule="evenodd"/></g><g id="change1_2"><path d="M500,465.21V500H330.53s-38.64-19.68-42.88-33.59c0,0,7.79-5.94,25.94-7.63,0,0-11-2.55-31.21,3.72,0,0-25.42-22.54-26.78-52.73,0,0,8.82-2.19,27.47-1.52l6.6,11.2-2.88-10.7s49.34-1,76.14,5.76c0,0,5.08,5.6,10.51,27.64l-2.05-25.25s9-.34,11.2,3.9,8.31,28.14,8.31,28.14l-2.38-26.78S457.19,436.05,500,465.21Z" fill="#4d9b44" fill-rule="evenodd"/></g><g id="change2_1"><path d="M440.5,414.8l20.43,1.87s-18.22-4.7-21.45-6.4-3-8.55-3-8.55l19.26,1.61c-16.8-4.19-21.06-8.07-21.06-8.07-5.11-20.46-4.24-58.1-4.24-58.1l8.15,2.22-8.53-5.05c-.47-14.24,1.22-21,1.22-21,23,1.1,40.17,20.54,40.17,20.54-4.82,15.38-2.9,23.8-2.9,23.8,1.33-13.84,5.87-19.78,5.87-19.78C485.07,341.2,500,370.72,500,370.72L499.65,500l-26.53-.07C451,467.21,440.5,414.8,440.5,414.8Z" fill="#30833f" fill-rule="evenodd"/></g><g id="change3_1"><path d="M485.12,364.89C494.56,354,500,348.24,500,348.24v15s-25.81,27.6-49.88,34.63C450.12,397.86,475.67,375.82,485.12,364.89Zm-42.77-17.4L500,319.91V309.17C463.6,325.45,442.35,347.49,442.35,347.49ZM500,300.94v-9.26C470.31,295.92,435.27,323,435.27,323Zm-20.63,40.25c-9.06,13.53-37.57,31.67-37.57,31.67,13.5-1.1,31.45-13,39.05-19.62S500,338.62,500,338.62V328.24S488.45,327.69,479.37,341.19ZM500,271.68V260.75c-21.72.94-68.45,13-68.45,13Zm-69,25.73s7.78-.73,19.62-2.21S500,286.12,500,286.12V275s-7,.36-18.63,4.08S431,297.41,431,297.41Zm38-81.83s13.4,11.48,31,16.84V220.58A83.32,83.32,0,0,0,469,215.58Zm31,40.54V241c-26.54,1.48-61,7.6-61,7.6ZM384.45,482.6C373,475,357.74,450.91,357.74,450.91c.93,11.39,10.93,26.53,16.55,32.94S386.62,500,386.62,500h8.76S395.84,490.26,384.45,482.6ZM418.4,500h7.81c-3.57-25-26.37-54.6-26.37-54.6Zm-39.26-48.63L402.4,500h9.07C397.73,469.3,379.14,451.37,379.14,451.37Zm-42.49,6.56c5.93,20.3,29.21,42.07,29.21,42.07H378.5s-4.82-4.59-14-12.55S336.65,457.93,336.65,457.93ZM476.21,500h10a70.16,70.16,0,0,0,4.21-26.18A81.65,81.65,0,0,0,476.21,500Zm-20,0H469c-1.25-22.38-6.41-51.48-6.41-51.48Zm-13.12,0h9.22c-.79-18.32-10.93-57.74-10.93-57.74Zm-21.7-58.2s.61,6.56,1.86,16.55S430.91,500,430.91,500h9.37s-.31-5.88-3.44-15.71S421.39,441.8,421.39,441.8Z" fill="#205732"/></g></g></svg>